#N canvas 13 30 771 848 12;
#X declare -lib moocow;
#X msg 255 284 close;
#X msg 165 171 devices;
#X obj 138 459 select 10 13;
#X obj 232 585 import moocow;
#X text 330 585 bytes2any object needs an import;
#X obj 138 586 bytes2any;
#X obj 138 766 outlet;
#X obj 165 740 outlet;
#X text 28 10 This is a patch for reading messages sent by arduino
over the serial port;
#X text 28 46 It can be used inside your patch by copying it into the
same folder as your pd patch and creating a new object called "arduinoserial"
;
#X obj 51 254 inlet;
#X text 230 161 pressing this will print the available serial ports
in the Pd command window;
#X text 282 217 you need to find your arduino port and replace the
number after "open ";
#X text 300 282 close the port;
#X obj 192 766 outlet;
#X obj 219 740 outlet;
#X obj 247 766 outlet;
#X obj 138 524 zl group 100;
#X text 229 453 Find the line breaks denoted by bytes 10 and 13 to
recreate the message from arduino;
#X text 234 522 grouping the bytes (100 would be our maximum number
;
#X text 344 659 you can add as many numbers (f) as you need;
#X text 25 96 It can be also used as a standalone patch \, by e. g.
adding sends after unpack (there are two already included);
#X msg 224 227 open 2;
#X obj 138 322 comport 2;
#X obj 138 656 unpack f f f f f f f f f f;
#X obj 301 766 outlet;
#X obj 328 740 outlet;
#X obj 355 766 outlet;
#X obj 382 740 outlet;
#X obj 410 766 outlet;
#X connect 0 0 23 0;
#X connect 1 0 23 0;
#X connect 2 0 17 0;
#X connect 2 2 17 0;
#X connect 5 0 24 0;
#X connect 10 0 23 0;
#X connect 17 0 5 0;
#X connect 22 0 23 0;
#X connect 23 0 2 0;
#X connect 24 0 6 0;
#X connect 24 1 7 0;
#X connect 24 2 14 0;
#X connect 24 3 15 0;
#X connect 24 4 16 0;
#X connect 24 5 25 0;
#X connect 24 6 26 0;
#X connect 24 7 27 0;
#X connect 24 8 28 0;
#X connect 24 9 29 0;
#X coords 0 -1 1 1 400 20 1 100 100;
