#N canvas 246 230 679 545 12;
#N canvas 158 22 781 654 16x 0;
#X obj 69 345 *~ 0.064;
#X obj 69 368 rpole~ 0.93538;
#X obj 69 391 *~ 0.00431;
#X obj 69 414 cpole~ 0.96559 0.05592;
#X obj 69 440 cpole~ 0.96559 -0.05592;
#X obj 69 463 *~ 0.125;
#X obj 69 486 rzero~ -1;
#X obj 69 509 rzero~ -1;
#X obj 69 532 rzero~ -1;
#X obj 63 97 phasor~;
#X obj 69 566 outlet~;
#X obj 86 151 wrap~;
#X obj 86 127 -~;
#X obj 86 175 *~;
#X obj 63 204 +~;
#X obj 271 156 phasor~;
#X obj 294 210 wrap~;
#X obj 294 186 -~;
#X obj 294 234 *~;
#X obj 271 263 +~;
#X obj 64 271 +~;
#X obj 457 31 block~ 1024 1 16;
#X obj 62 29 inlet;
#X obj 250 34 r osc-params;
#X obj 250 57 unpack 0 0 0 0 0 0;
#X obj 272 100 *~;
#X obj 272 128 +~;
#X msg 341 338 \; osc-params 0.5 -0.5 0.5 0.5 1 0.5;
#X obj 341 312 loadbang;
#X connect 0 0 1 0;
#X connect 1 0 2 0;
#X connect 2 0 3 0;
#X connect 3 0 4 0;
#X connect 3 1 4 1;
#X connect 4 0 5 0;
#X connect 5 0 6 0;
#X connect 6 0 7 0;
#X connect 7 0 8 0;
#X connect 8 0 10 0;
#X connect 9 0 12 0;
#X connect 9 0 14 0;
#X connect 11 0 13 0;
#X connect 12 0 11 0;
#X connect 13 0 14 1;
#X connect 14 0 20 0;
#X connect 15 0 17 0;
#X connect 15 0 19 0;
#X connect 16 0 18 0;
#X connect 17 0 16 0;
#X connect 18 0 19 1;
#X connect 19 0 20 1;
#X connect 20 0 0 0;
#X connect 22 0 9 0;
#X connect 22 0 25 0;
#X connect 23 0 24 0;
#X connect 24 0 12 1;
#X connect 24 1 13 1;
#X connect 24 2 17 1;
#X connect 24 3 18 1;
#X connect 24 4 25 1;
#X connect 24 5 26 1;
#X connect 25 0 26 0;
#X connect 26 0 15 0;
#X connect 28 0 27 0;
#X restore 41 160 pd 16x;
#X obj 43 274 output~;
#X text 151 7 THE CLASSIC SUBTRACTIVE SYNTH SOUND;
#X obj 152 132 *~;
#X obj 151 102 +~ 0.2;
#X obj 151 156 *~ 2000;
#X obj 107 240 *~;
#X obj 42 237 *~;
#X obj 41 122 mtof;
#X obj 41 13 r \$0-note;
#X obj 41 62 makenote 1;
#X obj 404 102 metro 300;
#X obj 404 80 tgl 15 0 empty empty empty 0 -6 0 8 -262144 -1 -1 1 1
;
#X obj 404 388 s \$0-note;
#X obj 41 211 vcf~ 3;
#X floatatom 228 112 3 0 0 0 - - -;
#X floatatom 228 157 7 0 0 0 - - -;
#X obj 228 133 mtof;
#X obj 107 215 adsr 2 30 200 50 500;
#X obj 151 77 adsr 1 10 200 50 500;
#X obj 404 362 pack 0 200;
#X obj 41 92 poly 1 1;
#X obj 41 36 unpack;
#X floatatom 464 28 3 0 0 0 - - -;
#X floatatom 471 337 3 0 0 0 - - -;
#X obj 404 125 random 10;
#X obj 404 337 + 35;
#X floatatom 161 188 5 0 0 0 - - -;
#X floatatom 210 187 5 0 0 0 - - -;
#X floatatom 259 187 5 0 0 0 - - -;
#X floatatom 310 188 5 0 0 0 - - -;
#X floatatom 497 148 5 0 0 0 - - -;
#X floatatom 590 148 5 0 0 0 - - -;
#X obj 495 29 random 3;
#X obj 464 59 * \$1;
#X floatatom 548 4 5 0 0 0 - - -;
#X floatatom 491 98 5 0 0 0 - - -;
#X floatatom 429 298 5 0 0 0 - - -;
#X obj 404 183 expr if($f1 > $f1/3 \, $f2 \, $f1) \; if ($f1 < $f1/3*2
\, $f3 \, $f1) \;;
#X obj 471 300 expr ($f1 * 8 + 150) \;;
#X floatatom 404 227 5 0 0 0 - - -;
#X floatatom 588 225 5 0 0 0 - - -;
#X connect 0 0 14 0;
#X connect 3 0 5 0;
#X connect 4 0 3 0;
#X connect 4 0 3 1;
#X connect 5 0 14 1;
#X connect 6 0 7 1;
#X connect 7 0 1 0;
#X connect 7 0 1 1;
#X connect 8 0 0 0;
#X connect 9 0 22 0;
#X connect 10 0 21 0;
#X connect 10 1 21 1;
#X connect 11 0 25 0;
#X connect 11 0 33 0;
#X connect 11 0 23 0;
#X connect 12 0 11 0;
#X connect 14 0 7 0;
#X connect 15 0 17 0;
#X connect 16 0 5 1;
#X connect 17 0 16 0;
#X connect 18 0 6 0;
#X connect 18 0 6 1;
#X connect 19 0 4 0;
#X connect 20 0 13 0;
#X connect 21 1 8 0;
#X connect 21 2 19 0;
#X connect 21 2 18 0;
#X connect 22 0 10 0;
#X connect 22 1 10 2;
#X connect 23 0 34 0;
#X connect 24 0 20 1;
#X connect 25 0 38 0;
#X connect 25 0 39 0;
#X connect 26 0 20 0;
#X connect 27 0 18 2;
#X connect 28 0 18 3;
#X connect 29 0 18 4;
#X connect 30 0 18 5;
#X connect 31 0 38 1;
#X connect 32 0 38 2;
#X connect 33 0 34 1;
#X connect 34 0 11 1;
#X connect 35 0 33 1;
#X connect 36 0 25 1;
#X connect 37 0 26 1;
#X connect 38 0 40 0;
#X connect 38 1 41 0;
#X connect 39 0 24 0;
#X connect 40 0 26 0;
#X connect 41 0 26 0;
