#N canvas 1 22 1436 856 10;
#X declare -lib moocow;
#X obj 29 20 arduinoserial;
#X floatatom 29 128 5 0 0 0 - - -;
#X floatatom 39 105 5 0 0 0 - - -;
#X floatatom 150 128 5 0 0 0 - - -;
#X obj 991 150 osc~;
#X obj 1092 482 output~;
#X floatatom 165 109 5 0 0 0 - - -;
#X obj 979 202 +~;
#X obj 1027 150 osc~;
#X obj 1027 122 +~;
#X obj 1042 71 / 400;
#X obj 954 150 osc~;
#N canvas 301 172 705 604 sound1 0;
#X obj 178 486 cos~;
#X obj 178 440 *~;
#X obj 221 488 cos~;
#X obj 262 389 wrap~;
#X obj 225 388 -~;
#X obj 221 465 +~;
#X obj 219 523 -~;
#X obj 240 549 *~;
#X obj 225 358 samphold~;
#X floatatom 242 238 4 0 200 0 - - -;
#X obj 242 261 / 10;
#X text 242 157 center;
#X obj 242 310 line~;
#X text 242 177 freq. (in;
#X text 242 197 tenths of;
#X text 242 217 fundamental);
#X obj 242 287 pack 0 50;
#X obj 131 293 phasor~;
#X floatatom 131 270 4 0 0 0 - - -;
#X text 116 217 fundamental;
#X text 116 237 (= mod freq);
#X text 445 264 index;
#X text 445 284 (percent);
#X floatatom 445 305 4 0 500 0 - - -;
#X obj 395 371 cos~;
#X obj 445 374 line~;
#X obj 395 394 *~;
#X obj 445 328 / 100;
#X obj 445 351 pack 0 50;
#X obj 178 463 +~;
#X text 398 420 modulating;
#X text 398 440 oscillator;
#X text 50 462 both phases-->;
#X text 19 445 add modulator to;
#X obj 242 611 hip~;
#X obj 217 575 +~;
#X obj 125 189 inlet;
#X obj 316 174 inlet;
#X obj 417 236 inlet;
#X obj 520 518 outlet~;
#X connect 0 0 6 1;
#X connect 0 0 35 0;
#X connect 1 0 29 0;
#X connect 2 0 6 0;
#X connect 3 0 4 1;
#X connect 3 0 7 1;
#X connect 4 0 1 1;
#X connect 5 0 2 0;
#X connect 6 0 7 0;
#X connect 7 0 35 1;
#X connect 8 0 4 0;
#X connect 8 0 3 0;
#X connect 9 0 10 0;
#X connect 10 0 16 0;
#X connect 12 0 8 0;
#X connect 16 0 12 0;
#X connect 17 0 8 1;
#X connect 17 0 24 0;
#X connect 17 0 1 0;
#X connect 17 0 5 1;
#X connect 18 0 17 0;
#X connect 23 0 27 0;
#X connect 24 0 26 0;
#X connect 25 0 26 1;
#X connect 26 0 29 1;
#X connect 27 0 28 0;
#X connect 28 0 25 0;
#X connect 29 0 5 0;
#X connect 29 0 0 0;
#X connect 34 0 39 0;
#X connect 35 0 34 0;
#X connect 36 0 18 0;
#X connect 37 0 9 0;
#X connect 38 0 23 0;
#X restore 1090 141 pd sound1;
#X obj 1092 395 +~;
#X floatatom 1183 14 5 0 0 0 - - -;
#X obj 1084 5 / 10;
#X obj 954 114 + 220;
#X obj 992 71 + 218;
#X floatatom 884 74 5 0 0 0 - - -;
#X obj 884 46 200 + \$1;
#X obj 884 17 / 25;
#X obj 979 284 *~;
#X floatatom 907 248 5 0 0 0 - - -;
#N canvas 0 22 499 321 test-input 0;
#X obj 75 253 outlet~;
#X obj 74 201 -~;
#X obj 74 177 *~ 3;
#X obj 111 183 *~ 2;
#X floatatom 74 81 0 0 0 0 - - -;
#X obj 74 153 clip~ 0 0.667;
#X text 124 80 <-- pitch;
#X obj 74 105 mtof;
#X msg 195 142 1;
#X obj 74 225 *~;
#X obj 74 129 phasor~ 0;
#X obj 195 190 tabread4~ dbtorms;
#X obj 195 166 adsr 100 100 2000 0 2000;
#X obj 73 54 inlet;
#N canvas 0 22 600 392 conversion-tables 0;
#N canvas 0 22 450 300 (subpatch) 0;
#X array dbtorms 123 float 1;
#A 0 0 0 1.25893e-05 1.41254e-05 1.58489e-05 1.77828e-05 1.99526e-05
2.23872e-05 2.51189e-05 2.81838e-05 3.16228e-05 3.54813e-05 3.98107e-05
4.46684e-05 5.01187e-05 5.62341e-05 6.30957e-05 7.07946e-05 7.94328e-05
8.91251e-05 0.0001 0.000112202 0.000125893 0.000141254 0.000158489
0.000177828 0.000199526 0.000223872 0.000251189 0.000281838 0.000316228
0.000354813 0.000398107 0.000446684 0.000501187 0.000562341 0.000630957
0.000707946 0.000794328 0.000891251 0.001 0.00112202 0.00125893 0.00141254
0.00158489 0.00177828 0.00199526 0.00223872 0.00251189 0.00281838 0.00316228
0.00354813 0.00398107 0.00446684 0.00501187 0.00562341 0.00630957 0.00707946
0.00794328 0.00891251 0.01 0.0112202 0.0125893 0.0141254 0.0158489
0.0177828 0.0199526 0.0223872 0.0251189 0.0281838 0.0316228 0.0354813
0.0398107 0.0446684 0.0501187 0.0562341 0.0630957 0.0707946 0.0794328
0.0891251 0.1 0.112202 0.125893 0.141254 0.158489 0.177828 0.199526
0.223872 0.251189 0.281838 0.316228 0.354813 0.398107 0.446684 0.501187
0.562341 0.630957 0.707946 0.794328 0.891251 1 1.12202 1.25893 1.41254
1.58489 1.77828 1.99526 2.23872 2.51189 2.81838 3.16228 3.54813 3.98107
4.46684 5.01187 5.62341 6.30957 7.07946 7.94328 8.91251 10 11.2202
12.5893;
#X coords 0 10 123 0 200 100 1;
#X restore 70 45 graph;
#X text 272 138 0;
#X text 274 38 10;
#X text 89 148 ------ 123 samples ------;
#N canvas 0 22 450 300 (subpatch) 0;
#X array mtof 130 float 1;
#A 0 8.1758 8.66196 9.17702 9.72272 10.3009 10.9134 11.5623 12.2499
12.9783 13.75 14.5676 15.4339 16.3516 17.3239 18.354 19.4454 20.6017
21.8268 23.1247 24.4997 25.9565 27.5 29.1352 30.8677 32.7032 34.6478
36.7081 38.8909 41.2034 43.6535 46.2493 48.9994 51.9131 55 58.2705
61.7354 65.4064 69.2957 73.4162 77.7817 82.4069 87.3071 92.4986 97.9989
103.826 110 116.541 123.471 130.813 138.591 146.832 155.563 164.814
174.614 184.997 195.998 207.652 220 233.082 246.942 261.626 277.183
293.665 311.127 329.628 349.228 369.994 391.995 415.305 440 466.164
493.883 523.251 554.365 587.33 622.254 659.255 698.456 739.989 783.991
830.609 880 932.328 987.767 1046.5 1108.73 1174.66 1244.51 1318.51
1396.91 1479.98 1567.98 1661.22 1760 1864.66 1975.53 2093 2217.46 2349.32
2489.02 2637.02 2793.83 2959.96 3135.96 3322.44 3520 3729.31 3951.07
4186.01 4434.92 4698.64 4978.03 5274.04 5587.65 5919.91 6271.93 6644.88
7040 7458.62 7902.13 8372.02 8869.84 9397.27 9956.06 10548.1 11175.3
11839.8 12543.9 13289.8 14080;
#X coords 0 12000 130 0 200 100 1;
#X restore 77 222 graph;
#X text 87 330 ------ 130 samples ------;
#X text 286 315 0;
#X text 288 215 12000;
#N canvas 244 212 672 338 regenerate-tables 0;
#X msg 415 84 bang;
#X obj 415 113 t b b;
#X obj 474 177 f;
#X obj 512 177 + 1;
#X msg 483 147 0;
#X obj 415 142 until;
#X obj 474 211 t f f;
#X obj 414 238 mtof;
#X obj 405 202 sel 129;
#X obj 413 264 tabwrite mtof;
#X obj 35 227 moses 2;
#X msg 19 76 bang;
#X obj 19 105 t b b;
#X obj 90 166 f;
#X obj 128 166 + 1;
#X msg 112 138 0;
#X obj 19 134 until;
#X obj 11 194 sel 122;
#X msg 35 258 0;
#X obj 79 259 dbtorms;
#X obj 90 194 t f f;
#X obj 35 291 tabwrite dbtorms;
#X text 18 49 bang to recalculate dbtorms table;
#X text 356 50 bang to recalculate the mtof table;
#X connect 0 0 1 0;
#X connect 1 0 5 0;
#X connect 1 1 4 0;
#X connect 2 0 3 0;
#X connect 2 0 6 0;
#X connect 2 0 8 0;
#X connect 3 0 2 1;
#X connect 4 0 2 1;
#X connect 5 0 2 0;
#X connect 6 0 7 0;
#X connect 6 1 9 1;
#X connect 7 0 9 0;
#X connect 8 0 5 1;
#X connect 10 0 18 0;
#X connect 10 1 19 0;
#X connect 11 0 12 0;
#X connect 12 0 16 0;
#X connect 12 1 15 0;
#X connect 13 0 14 0;
#X connect 13 0 17 0;
#X connect 13 0 20 0;
#X connect 14 0 13 1;
#X connect 15 0 13 1;
#X connect 16 0 13 0;
#X connect 17 0 16 1;
#X connect 18 0 21 0;
#X connect 19 0 21 0;
#X connect 20 0 10 0;
#X connect 20 1 21 1;
#X restore 375 76 pd regenerate-tables;
#X restore 260 101 pd conversion-tables;
#X floatatom 15 125 5 0 0 0 - - -;
#X connect 1 0 9 0;
#X connect 2 0 1 0;
#X connect 3 0 1 1;
#X connect 4 0 7 0;
#X connect 4 0 8 0;
#X connect 5 0 2 0;
#X connect 7 0 10 0;
#X connect 7 0 15 0;
#X connect 8 0 12 0;
#X connect 9 0 0 0;
#X connect 10 0 3 0;
#X connect 10 0 5 0;
#X connect 11 0 9 1;
#X connect 12 0 11 0;
#X connect 13 0 4 0;
#X restore 1171 222 pd test-input;
#X floatatom 1171 195 0 10 130 0 - - -;
#X text 1208 195 <-- pitch;
#N canvas 448 155 958 610 reverb 0;
#X obj 13 19 inlet~;
#X obj 13 43 reverb-echo echo-del1 5.43216;
#X obj 277 215 +~;
#X obj 319 215 +~;
#X obj 67 276 outlet~;
#X obj 137 276 outlet~;
#X obj 238 334 +~;
#X obj 347 335 +~;
#X obj 280 334 -~;
#X obj 387 334 -~;
#X obj 237 390 +~;
#X obj 281 391 +~;
#X obj 325 392 -~;
#X obj 364 392 -~;
#X obj 324 474 *~ 0;
#X obj 282 473 *~ 0;
#X obj 237 472 *~ 0;
#X obj 365 475 *~ 0;
#X obj 632 365 inlet;
#X obj 632 437 / 200;
#X obj 632 389 min 100;
#X obj 632 412 max 0;
#X obj 238 583 delwrite~ loop-del1 60;
#X obj 283 561 delwrite~ loop-del2 71.9345;
#X obj 364 515 delwrite~ loop-del4 95.945;
#X obj 298 154 delread~ loop-del1 60;
#X obj 340 179 delread~ loop-del2 71.9345;
#X obj 408 233 delread~ loop-del4 95.945;
#X obj 386 208 delread~ loop-del3 86.7545;
#X obj 325 538 delwrite~ loop-del3 86.7545;
#X obj 13 67 reverb-echo echo-del2 8.45346;
#X obj 13 91 reverb-echo echo-del3 13.4367;
#X obj 13 115 reverb-echo echo-del4 21.5463;
#X obj 13 139 reverb-echo echo-del5 34.3876;
#X obj 13 163 reverb-echo echo-del6 55.5437;
#X text 286 42 "early echo" generators \, which also increase echo
density. Open one to see what they do.;
#X text 300 115 Get the outputs of the recirculating delays. Add the
inputs to two of them.;
#X text 420 313 Do a power-conserving mix of them in pairs. First combine
(1 \, 2) and (3 \, 4)...;
#X text 402 385 ...then (1 \, 3) and (2 \, 4);
#X text 446 469 The two mixing stages have a combined gain of 2 \,
so the recirculation gain is limited to 0.5.;
#X text 586 542 Put the signals back into the;
#X text 584 557 recirculating delays.;
#X text 29 296 Tap outputs from here.;
#X text 708 381 0 to 100 to control reverb;
#X text 719 396 time.;
#X text 691 364 feedback gain on a scale of;
#X connect 0 0 1 0;
#X connect 1 0 30 0;
#X connect 1 1 30 1;
#X connect 2 0 4 0;
#X connect 2 0 6 0;
#X connect 2 0 8 0;
#X connect 3 0 5 0;
#X connect 3 0 6 1;
#X connect 3 0 8 1;
#X connect 6 0 10 0;
#X connect 6 0 12 0;
#X connect 7 0 12 1;
#X connect 7 0 10 1;
#X connect 8 0 11 0;
#X connect 8 0 13 0;
#X connect 9 0 11 1;
#X connect 9 0 13 1;
#X connect 10 0 16 0;
#X connect 11 0 15 0;
#X connect 12 0 14 0;
#X connect 13 0 17 0;
#X connect 14 0 29 0;
#X connect 15 0 23 0;
#X connect 16 0 22 0;
#X connect 17 0 24 0;
#X connect 18 0 20 0;
#X connect 19 0 17 1;
#X connect 19 0 16 1;
#X connect 19 0 15 1;
#X connect 19 0 14 1;
#X connect 20 0 21 0;
#X connect 21 0 19 0;
#X connect 25 0 2 1;
#X connect 26 0 3 1;
#X connect 27 0 7 1;
#X connect 27 0 9 1;
#X connect 28 0 7 0;
#X connect 28 0 9 0;
#X connect 30 0 31 0;
#X connect 30 1 31 1;
#X connect 31 0 32 0;
#X connect 31 1 32 1;
#X connect 32 0 33 0;
#X connect 32 1 33 1;
#X connect 33 0 34 0;
#X connect 33 1 34 1;
#X connect 34 0 2 0;
#X connect 34 1 3 0;
#X restore 1171 248 pd reverb;
#X floatatom 1266 263 0 0 100 0 - - -;
#X obj 1101 314 +~ 0.25;
#X obj 907 211 / 15;
#X msg 757 -4 bang;
#X obj 758 221 osc~ 220;
#X obj 758 184 line~;
#X obj 757 94 delay 200;
#X obj 758 272 *~ 1;
#X obj 757 56 metro 800;
#X msg 758 140 0 \$1;
#X msg 815 140 220 \$1;
#X obj 1101 344 lop~ 25;
#X obj 1170 160 + 45;
#X msg 821 11 stop;
#X obj 1170 125 / 5;
#X floatatom 258 129 5 0 0 0 - - -;
#X floatatom 269 107 5 0 0 0 - - -;
#X floatatom 336 133 5 0 0 0 - - -;
#X floatatom 444 108 5 0 0 0 - - -;
#X floatatom 417 133 5 0 0 0 - - -;
#X floatatom 367 111 5 0 0 0 - - -;
#X obj 66 775 dac~;
#N canvas 396 466 450 300 test 0;
#X obj 86 45 inlet;
#X obj 77 206 outlet~;
#X obj 88 145 osc~;
#X floatatom 87 70 5 0 0 0 - - -;
#X obj 87 100 * 4;
#X connect 0 0 3 0;
#X connect 2 0 1 0;
#X connect 3 0 4 0;
#X connect 4 0 2 0;
#X restore -52 428 pd test;
#X obj 29 484 *~;
#X floatatom -33 576 5 0 0 0 - - -;
#X obj -33 638 / 100;
#X obj -33 617 max 0;
#X floatatom -33 663 5 0 0 0 - - -;
#X obj -33 596 min 100;
#X obj 893 718 metro 300;
#X obj 893 696 tgl 15 0 empty empty empty 0 -6 0 8 -262144 -1 -1 1
1;
#X floatatom 953 644 3 0 0 0 - - -;
#X obj 893 741 random 10;
#X obj 984 645 random 3;
#X obj 953 675 * \$1;
#X floatatom 1037 620 5 0 0 0 - - -;
#X floatatom 980 714 5 0 0 0 - - -;
#X floatatom 893 795 5 0 0 0 - - -;
#X obj -105 479 loadbang;
#X obj -105 502 delay 3000;
#X msg -105 554 \; pd dsp 1;
#X msg -33 554 100;
#X obj -53 398 variable-osc;
#X floatatom 16 378 5 0 0 0 - - -;
#X obj 256 680 *~;
#N canvas 448 155 958 610 reverb 0;
#X obj 13 19 inlet~;
#X obj 13 43 reverb-echo echo-del1 5.43216;
#X obj 277 215 +~;
#X obj 319 215 +~;
#X obj 67 276 outlet~;
#X obj 137 276 outlet~;
#X obj 238 334 +~;
#X obj 347 335 +~;
#X obj 280 334 -~;
#X obj 387 334 -~;
#X obj 237 390 +~;
#X obj 281 391 +~;
#X obj 325 392 -~;
#X obj 364 392 -~;
#X obj 324 474 *~ 0;
#X obj 282 473 *~ 0;
#X obj 237 472 *~ 0;
#X obj 365 475 *~ 0;
#X obj 632 365 inlet;
#X obj 632 437 / 200;
#X obj 632 389 min 100;
#X obj 632 412 max 0;
#X obj 238 583 delwrite~ loop-del1 60;
#X obj 283 561 delwrite~ loop-del2 71.9345;
#X obj 364 515 delwrite~ loop-del4 95.945;
#X obj 298 154 delread~ loop-del1 60;
#X obj 340 179 delread~ loop-del2 71.9345;
#X obj 408 233 delread~ loop-del4 95.945;
#X obj 386 208 delread~ loop-del3 86.7545;
#X obj 325 538 delwrite~ loop-del3 86.7545;
#X obj 13 67 reverb-echo echo-del2 8.45346;
#X obj 13 91 reverb-echo echo-del3 13.4367;
#X obj 13 115 reverb-echo echo-del4 21.5463;
#X obj 13 139 reverb-echo echo-del5 34.3876;
#X obj 13 163 reverb-echo echo-del6 55.5437;
#X text 286 42 "early echo" generators \, which also increase echo
density. Open one to see what they do.;
#X text 300 115 Get the outputs of the recirculating delays. Add the
inputs to two of them.;
#X text 420 313 Do a power-conserving mix of them in pairs. First combine
(1 \, 2) and (3 \, 4)...;
#X text 402 385 ...then (1 \, 3) and (2 \, 4);
#X text 446 469 The two mixing stages have a combined gain of 2 \,
so the recirculation gain is limited to 0.5.;
#X text 586 542 Put the signals back into the;
#X text 584 557 recirculating delays.;
#X text 29 296 Tap outputs from here.;
#X text 708 381 0 to 100 to control reverb;
#X text 719 396 time.;
#X text 691 364 feedback gain on a scale of;
#X connect 0 0 1 0;
#X connect 1 0 30 0;
#X connect 1 1 30 1;
#X connect 2 0 4 0;
#X connect 2 0 6 0;
#X connect 2 0 8 0;
#X connect 3 0 5 0;
#X connect 3 0 6 1;
#X connect 3 0 8 1;
#X connect 6 0 10 0;
#X connect 6 0 12 0;
#X connect 7 0 12 1;
#X connect 7 0 10 1;
#X connect 8 0 11 0;
#X connect 8 0 13 0;
#X connect 9 0 11 1;
#X connect 9 0 13 1;
#X connect 10 0 16 0;
#X connect 11 0 15 0;
#X connect 12 0 14 0;
#X connect 13 0 17 0;
#X connect 14 0 29 0;
#X connect 15 0 23 0;
#X connect 16 0 22 0;
#X connect 17 0 24 0;
#X connect 18 0 20 0;
#X connect 19 0 17 1;
#X connect 19 0 16 1;
#X connect 19 0 15 1;
#X connect 19 0 14 1;
#X connect 20 0 21 0;
#X connect 21 0 19 0;
#X connect 25 0 2 1;
#X connect 26 0 3 1;
#X connect 27 0 7 1;
#X connect 27 0 9 1;
#X connect 28 0 7 0;
#X connect 28 0 9 0;
#X connect 30 0 31 0;
#X connect 30 1 31 1;
#X connect 31 0 32 0;
#X connect 31 1 32 1;
#X connect 32 0 33 0;
#X connect 32 1 33 1;
#X connect 33 0 34 0;
#X connect 33 1 34 1;
#X connect 34 0 2 0;
#X connect 34 1 3 0;
#X restore 21 428 pd reverb;
#X obj 72 385 * 5;
#X msg 1204 515 bang;
#X obj 1132 740 osc~ 220;
#X obj 1124 708 line~;
#X obj 1124 618 delay 200;
#X obj 1201 578 metro 500;
#X obj 1132 791 *~ 1;
#X msg 1124 664 0 150;
#X msg 1181 666 220 50;
#X floatatom 1257 504 5 0 0 0 - - -;
#X obj 1257 531 t f b;
#X floatatom 79 407 5 0 0 0 - - -;
#X obj 72 363 + 15;
#X floatatom 93 340 5 0 0 0 - - -;
#X floatatom 57 564 5 0 0 0 - - -;
#X text 103 582 carrier frequency;
#X obj 271 551 osc~;
#X floatatom 280 511 5 0 0 0 - - -;
#X text 316 511 modulation frequency;
#X obj 271 596 *~;
#X floatatom 285 573 5 0 0 0 - - -;
#X text 328 576 modulation depth;
#X obj 44 542 + 160;
#X obj 271 458 max 20;
#X obj 325 549 max 45;
#X obj 256 618 +~;
#X obj 475 639 osc~ 220;
#X floatatom 475 426 5 0 0 0 - - -;
#X obj 475 526 *~ 10;
#X obj 530 526 osc~ 220;
#X floatatom 540 486 5 0 0 0 - - -;
#X obj 475 550 *~;
#X obj 531 460 + \$1;
#X obj 530 425 / 10;
#X floatatom 579 452 5 0 0 0 - - -;
#X obj 271 488 * 2;
#X obj 29 609 *~;
#X obj 44 585 osc~ 350;
#X obj 21 449 *~ 0.25;
#X floatatom 150 563 5 0 0 0 - - -;
#X obj 150 494 / 10;
#X obj 150 540 + \$1;
#X obj 186 494 + 4;
#X floatatom 195 563 5 0 0 0 - - -;
#X obj 195 539 + \$1;
#X obj 256 639 *~ 0.15;
#X obj 41 684 *~ 0.25;
#X obj 475 382 loadbang;
#X msg 16 357 260;
#X obj 16 336 loadbang;
#X obj 93 298 loadbang;
#X msg 93 319 75;
#X msg 475 404 330;
#X obj 44 520 * 1;
#X obj 256 737 *~ 0.25;
#N canvas 448 155 958 610 reverb 0;
#X obj 13 19 inlet~;
#X obj 13 43 reverb-echo echo-del1 5.43216;
#X obj 277 215 +~;
#X obj 319 215 +~;
#X obj 67 276 outlet~;
#X obj 137 276 outlet~;
#X obj 238 334 +~;
#X obj 347 335 +~;
#X obj 280 334 -~;
#X obj 387 334 -~;
#X obj 237 390 +~;
#X obj 281 391 +~;
#X obj 325 392 -~;
#X obj 364 392 -~;
#X obj 324 474 *~ 0;
#X obj 282 473 *~ 0;
#X obj 237 472 *~ 0;
#X obj 365 475 *~ 0;
#X obj 632 365 inlet;
#X obj 632 437 / 200;
#X obj 632 389 min 100;
#X obj 632 412 max 0;
#X obj 238 583 delwrite~ loop-del1 60;
#X obj 283 561 delwrite~ loop-del2 71.9345;
#X obj 364 515 delwrite~ loop-del4 95.945;
#X obj 298 154 delread~ loop-del1 60;
#X obj 340 179 delread~ loop-del2 71.9345;
#X obj 408 233 delread~ loop-del4 95.945;
#X obj 386 208 delread~ loop-del3 86.7545;
#X obj 325 538 delwrite~ loop-del3 86.7545;
#X obj 13 67 reverb-echo echo-del2 8.45346;
#X obj 13 91 reverb-echo echo-del3 13.4367;
#X obj 13 115 reverb-echo echo-del4 21.5463;
#X obj 13 139 reverb-echo echo-del5 34.3876;
#X obj 13 163 reverb-echo echo-del6 55.5437;
#X text 286 42 "early echo" generators \, which also increase echo
density. Open one to see what they do.;
#X text 300 115 Get the outputs of the recirculating delays. Add the
inputs to two of them.;
#X text 420 313 Do a power-conserving mix of them in pairs. First combine
(1 \, 2) and (3 \, 4)...;
#X text 402 385 ...then (1 \, 3) and (2 \, 4);
#X text 446 469 The two mixing stages have a combined gain of 2 \,
so the recirculation gain is limited to 0.5.;
#X text 586 542 Put the signals back into the;
#X text 584 557 recirculating delays.;
#X text 29 296 Tap outputs from here.;
#X text 708 381 0 to 100 to control reverb;
#X text 719 396 time.;
#X text 691 364 feedback gain on a scale of;
#X connect 0 0 1 0;
#X connect 1 0 30 0;
#X connect 1 1 30 1;
#X connect 2 0 4 0;
#X connect 2 0 6 0;
#X connect 2 0 8 0;
#X connect 3 0 5 0;
#X connect 3 0 6 1;
#X connect 3 0 8 1;
#X connect 6 0 10 0;
#X connect 6 0 12 0;
#X connect 7 0 12 1;
#X connect 7 0 10 1;
#X connect 8 0 11 0;
#X connect 8 0 13 0;
#X connect 9 0 11 1;
#X connect 9 0 13 1;
#X connect 10 0 16 0;
#X connect 11 0 15 0;
#X connect 12 0 14 0;
#X connect 13 0 17 0;
#X connect 14 0 29 0;
#X connect 15 0 23 0;
#X connect 16 0 22 0;
#X connect 17 0 24 0;
#X connect 18 0 20 0;
#X connect 19 0 17 1;
#X connect 19 0 16 1;
#X connect 19 0 15 1;
#X connect 19 0 14 1;
#X connect 20 0 21 0;
#X connect 21 0 19 0;
#X connect 25 0 2 1;
#X connect 26 0 3 1;
#X connect 27 0 7 1;
#X connect 27 0 9 1;
#X connect 28 0 7 0;
#X connect 28 0 9 0;
#X connect 30 0 31 0;
#X connect 30 1 31 1;
#X connect 31 0 32 0;
#X connect 31 1 32 1;
#X connect 32 0 33 0;
#X connect 32 1 33 1;
#X connect 33 0 34 0;
#X connect 33 1 34 1;
#X connect 34 0 2 0;
#X connect 34 1 3 0;
#X restore 419 679 pd reverb;
#X floatatom 553 668 5 0 0 0 - - -;
#X obj 553 643 * 100;
#X text -31 141 facing row of sensors;
#X text -27 65 back row of sensors;
#X text -96 95 "left" cable side of the box;
#X text 573 99 "right" cable opposite side of the box;
#X obj 52 746 *~;
#X obj 96 745 *~;
#X obj 735 399 osc~ 340;
#X obj 778 485 rev3~ 90 90 3000 200;
#X obj 833 411 phasor~ 15;
#X floatatom 899 384 5 0 0 0 - - -;
#X floatatom 785 362 5 0 0 0 - - -;
#X floatatom 901 438 5 0 0 0 - - -;
#X obj 636 326 / 2;
#X floatatom 654 351 5 0 0 0 - - -;
#X obj 706 326 * 2;
#X floatatom 988 447 5 0 0 0 - - -;
#X obj 808 536 + 90;
#X floatatom 851 569 5 0 0 0 - - -;
#X obj 747 541 / 10;
#X obj 966 469 + 95;
#X obj 977 579 loadbang;
#X msg 1018 685 20;
#X obj 1038 571 / 2;
#X obj 1037 593 + 40;
#X connect 0 0 1 0;
#X connect 0 1 2 0;
#X connect 0 2 3 0;
#X connect 0 3 6 0;
#X connect 0 4 42 0;
#X connect 0 5 43 0;
#X connect 0 6 44 0;
#X connect 0 7 47 0;
#X connect 0 8 46 0;
#X connect 0 9 45 0;
#X connect 1 0 69 0;
#X connect 2 0 49 0;
#X connect 2 0 85 0;
#X connect 3 0 113 0;
#X connect 3 0 149 0;
#X connect 4 0 7 0;
#X connect 6 0 130 0;
#X connect 6 0 145 0;
#X connect 7 0 21 0;
#X connect 8 0 7 1;
#X connect 9 0 8 0;
#X connect 10 0 9 1;
#X connect 11 0 7 0;
#X connect 12 0 13 0;
#X connect 13 0 5 0;
#X connect 13 0 5 1;
#X connect 14 0 12 1;
#X connect 15 0 12 0;
#X connect 16 0 11 0;
#X connect 17 0 4 0;
#X connect 17 0 9 0;
#X connect 18 0 17 0;
#X connect 19 0 18 0;
#X connect 20 0 19 0;
#X connect 21 0 13 0;
#X connect 22 0 21 0;
#X connect 23 0 26 0;
#X connect 24 0 23 0;
#X connect 26 0 28 0;
#X connect 26 1 28 0;
#X connect 27 0 26 1;
#X connect 28 0 38 0;
#X connect 29 0 22 0;
#X connect 30 0 35 0;
#X connect 31 0 34 0;
#X connect 32 0 31 0;
#X connect 33 0 36 0;
#X connect 34 0 5 0;
#X connect 35 0 37 0;
#X connect 35 0 33 0;
#X connect 36 0 32 0;
#X connect 37 0 32 0;
#X connect 38 0 13 0;
#X connect 39 0 24 0;
#X connect 40 0 35 0;
#X connect 41 0 28 1;
#X connect 41 0 39 0;
#X connect 42 0 106 0;
#X connect 42 0 153 0;
#X connect 43 0 143 0;
#X connect 44 0 96 0;
#X connect 45 0 126 0;
#X connect 47 0 97 0;
#X connect 49 0 50 1;
#X connect 50 0 109 0;
#X connect 51 0 55 0;
#X connect 52 0 54 0;
#X connect 53 0 52 0;
#X connect 54 0 135 1;
#X connect 54 0 136 1;
#X connect 55 0 53 0;
#X connect 56 0 59 0;
#X connect 56 0 60 0;
#X connect 56 0 58 0;
#X connect 57 0 56 0;
#X connect 58 0 61 0;
#X connect 59 0 64 0;
#X connect 60 0 61 1;
#X connect 61 0 56 1;
#X connect 62 0 60 1;
#X connect 63 0 59 1;
#X connect 64 0 150 0;
#X connect 65 0 66 0;
#X connect 66 0 67 0;
#X connect 66 0 68 0;
#X connect 68 0 51 0;
#X connect 69 0 72 0;
#X connect 69 0 50 0;
#X connect 70 0 69 1;
#X connect 71 0 127 0;
#X connect 71 0 135 0;
#X connect 72 0 50 0;
#X connect 72 0 111 0;
#X connect 73 0 72 1;
#X connect 73 0 84 0;
#X connect 74 0 78 0;
#X connect 75 0 79 0;
#X connect 76 0 75 0;
#X connect 77 0 80 0;
#X connect 78 0 81 0;
#X connect 78 0 77 0;
#X connect 80 0 76 0;
#X connect 81 0 76 0;
#X connect 82 0 83 0;
#X connect 83 0 78 1;
#X connect 83 1 78 0;
#X connect 85 0 73 0;
#X connect 86 0 85 1;
#X connect 89 0 92 0;
#X connect 92 0 98 1;
#X connect 93 0 92 1;
#X connect 95 0 87 0;
#X connect 95 0 110 0;
#X connect 95 0 115 0;
#X connect 96 0 108 0;
#X connect 97 0 93 0;
#X connect 98 0 118 0;
#X connect 99 0 128 0;
#X connect 99 0 135 0;
#X connect 99 0 138 0;
#X connect 100 0 101 0;
#X connect 100 0 102 0;
#X connect 100 0 105 0;
#X connect 101 0 104 0;
#X connect 102 0 104 1;
#X connect 104 0 99 0;
#X connect 105 0 103 0;
#X connect 105 0 102 0;
#X connect 106 0 107 0;
#X connect 106 0 101 1;
#X connect 106 0 105 1;
#X connect 108 0 89 0;
#X connect 108 0 90 0;
#X connect 109 0 119 0;
#X connect 109 0 136 0;
#X connect 110 0 109 1;
#X connect 110 0 138 0;
#X connect 111 0 50 0;
#X connect 113 0 114 0;
#X connect 113 0 117 0;
#X connect 114 0 112 0;
#X connect 115 0 114 1;
#X connect 115 0 117 1;
#X connect 117 0 116 0;
#X connect 118 0 71 0;
#X connect 119 0 135 0;
#X connect 120 0 125 0;
#X connect 121 0 70 0;
#X connect 122 0 121 0;
#X connect 123 0 124 0;
#X connect 124 0 86 0;
#X connect 125 0 100 0;
#X connect 126 0 95 0;
#X connect 127 0 136 0;
#X connect 128 0 127 0;
#X connect 130 0 129 0;
#X connect 130 0 128 1;
#X connect 135 0 48 0;
#X connect 136 0 48 1;
#X connect 137 0 138 0;
#X connect 137 0 138 1;
#X connect 138 0 136 0;
#X connect 138 1 135 0;
#X connect 139 0 138 1;
#X connect 140 0 139 1;
#X connect 141 0 139 0;
#X connect 142 0 138 3;
#X connect 143 0 144 0;
#X connect 143 0 140 0;
#X connect 145 0 141 0;
#X connect 145 0 137 0;
#X connect 146 0 150 1;
#X connect 147 0 148 0;
#X connect 147 0 138 2;
#X connect 149 0 147 0;
#X connect 150 0 142 0;
#X connect 151 0 152 0;
#X connect 151 0 57 0;
#X connect 152 0 63 0;
#X connect 153 0 154 0;
#X connect 154 0 62 0;
#X connect 154 0 60 1;
