#N canvas 345 33 591 606 10;
#X declare -lib moocow;
#X obj 160 55 arduinoserial;
#X floatatom 76 101 5 0 0 0 - - -;
#X floatatom 129 101 5 0 0 0 - - -;
#X floatatom 179 101 5 0 0 0 - - -;
#X obj 76 185 evenodd;
#X obj 154 341 osc~;
#X obj 153 299 * 4;
#X obj 134 471 output~;
#X connect 0 0 1 0;
#X connect 0 1 2 0;
#X connect 0 2 3 0;
#X connect 1 0 4 0;
#X connect 2 0 4 1;
#X connect 3 0 4 2;
#X connect 3 0 6 0;
#X connect 5 0 7 0;
#X connect 5 0 7 1;
#X connect 6 0 5 0;
