#N canvas 1 22 1436 856 10;
#X declare -lib moocow;
#X obj 305 81 arduinoserial;
#X floatatom 305 199 5 0 0 0 - - -;
#X floatatom 312 139 5 0 0 0 - - -;
#X floatatom 392 199 5 0 0 0 - - -;
#X floatatom 399 139 5 0 0 0 - - -;
#X floatatom 479 198 5 0 0 0 - - -;
#X floatatom 486 139 5 0 0 0 - - -;
#X floatatom 567 198 5 0 0 0 - - -;
#X floatatom 661 139 5 0 0 0 - - -;
#X floatatom 654 197 5 0 0 0 - - -;
#X floatatom 574 139 5 0 0 0 - - -;
#X obj 417 823 dac~;
#N canvas 396 466 450 300 test 0;
#X obj 86 45 inlet;
#X obj 77 206 outlet~;
#X obj 88 145 osc~;
#X floatatom 87 70 5 0 0 0 - - -;
#X obj 87 100 * 4;
#X connect 0 0 3 0;
#X connect 2 0 1 0;
#X connect 3 0 4 0;
#X connect 4 0 2 0;
#X restore 260 594 pd test;
#X obj 245 614 *~;
#X floatatom 139 632 5 0 0 0 - - -;
#X obj 139 691 / 100;
#X obj 139 671 max 0;
#X floatatom 139 711 5 0 0 0 - - -;
#X obj 139 651 min 100;
#X obj 1099 536 metro 300;
#X floatatom 1109 556 3 0 0 0 - - -;
#X obj 1099 615 random 10;
#X obj 1150 516 * \$1;
#X floatatom 1232 496 5 0 0 0 - - -;
#X floatatom 1160 616 5 0 0 0 - - -;
#X floatatom 1109 635 5 0 0 0 - - -;
#X obj 67 538 loadbang;
#X obj 67 558 delay 3000;
#X msg 67 612 \; pd dsp 1;
#X msg 139 612 100;
#X obj 245 323 variable-osc;
#X floatatom 324 324 5 0 0 0 - - -;
#N canvas 448 155 958 610 reverb 0;
#X obj 13 19 inlet~;
#X obj 13 43 reverb-echo echo-del1 5.43216;
#X obj 277 215 +~;
#X obj 319 215 +~;
#X obj 67 276 outlet~;
#X obj 137 276 outlet~;
#X obj 238 334 +~;
#X obj 347 335 +~;
#X obj 280 334 -~;
#X obj 387 334 -~;
#X obj 237 390 +~;
#X obj 281 391 +~;
#X obj 325 392 -~;
#X obj 364 392 -~;
#X obj 324 474 *~ 0;
#X obj 282 473 *~ 0;
#X obj 237 472 *~ 0;
#X obj 365 475 *~ 0;
#X obj 632 365 inlet;
#X obj 632 437 / 200;
#X obj 632 389 min 100;
#X obj 632 412 max 0;
#X obj 238 583 delwrite~ loop-del1 60;
#X obj 283 561 delwrite~ loop-del2 71.9345;
#X obj 364 515 delwrite~ loop-del4 95.945;
#X obj 298 154 delread~ loop-del1 60;
#X obj 340 179 delread~ loop-del2 71.9345;
#X obj 408 233 delread~ loop-del4 95.945;
#X obj 386 208 delread~ loop-del3 86.7545;
#X obj 325 538 delwrite~ loop-del3 86.7545;
#X obj 13 67 reverb-echo echo-del2 8.45346;
#X obj 13 91 reverb-echo echo-del3 13.4367;
#X obj 13 115 reverb-echo echo-del4 21.5463;
#X obj 13 139 reverb-echo echo-del5 34.3876;
#X obj 13 163 reverb-echo echo-del6 55.5437;
#X text 286 42 "early echo" generators \, which also increase echo
density. Open one to see what they do.;
#X text 300 115 Get the outputs of the recirculating delays. Add the
inputs to two of them.;
#X text 420 313 Do a power-conserving mix of them in pairs. First combine
(1 \, 2) and (3 \, 4)...;
#X text 402 385 ...then (1 \, 3) and (2 \, 4);
#X text 446 469 The two mixing stages have a combined gain of 2 \,
so the recirculation gain is limited to 0.5.;
#X text 586 542 Put the signals back into the;
#X text 584 557 recirculating delays.;
#X text 29 296 Tap outputs from here.;
#X text 708 381 0 to 100 to control reverb;
#X text 719 396 time.;
#X text 691 364 feedback gain on a scale of;
#X connect 0 0 1 0;
#X connect 1 0 30 0;
#X connect 1 1 30 1;
#X connect 2 0 4 0;
#X connect 2 0 6 0;
#X connect 2 0 8 0;
#X connect 3 0 5 0;
#X connect 3 0 6 1;
#X connect 3 0 8 1;
#X connect 6 0 10 0;
#X connect 6 0 12 0;
#X connect 7 0 12 1;
#X connect 7 0 10 1;
#X connect 8 0 11 0;
#X connect 8 0 13 0;
#X connect 9 0 11 1;
#X connect 9 0 13 1;
#X connect 10 0 16 0;
#X connect 11 0 15 0;
#X connect 12 0 14 0;
#X connect 13 0 17 0;
#X connect 14 0 29 0;
#X connect 15 0 23 0;
#X connect 16 0 22 0;
#X connect 17 0 24 0;
#X connect 18 0 20 0;
#X connect 19 0 17 1;
#X connect 19 0 16 1;
#X connect 19 0 15 1;
#X connect 19 0 14 1;
#X connect 20 0 21 0;
#X connect 21 0 19 0;
#X connect 25 0 2 1;
#X connect 26 0 3 1;
#X connect 27 0 7 1;
#X connect 27 0 9 1;
#X connect 28 0 7 0;
#X connect 28 0 9 0;
#X connect 30 0 31 0;
#X connect 30 1 31 1;
#X connect 31 0 32 0;
#X connect 31 1 32 1;
#X connect 32 0 33 0;
#X connect 32 1 33 1;
#X connect 33 0 34 0;
#X connect 33 1 34 1;
#X connect 34 0 2 0;
#X connect 34 1 3 0;
#X restore 267 524 pd reverb;
#X obj 318 505 * 5;
#X floatatom 327 525 5 0 0 0 - - -;
#X obj 318 423 + 15;
#X floatatom 349 424 5 0 0 0 - - -;
#X floatatom 332 641 5 0 0 0 - - -;
#X obj 475 502 osc~;
#X floatatom 485 482 5 0 0 0 - - -;
#X obj 475 582 *~;
#X floatatom 500 582 5 0 0 0 - - -;
#X obj 322 621 + 160;
#X obj 475 442 max 20;
#X obj 490 562 max 45;
#X obj 460 604 +~;
#X obj 679 620 osc~ 220;
#X floatatom 689 372 5 0 0 0 - - -;
#X obj 679 422 *~ 10;
#X obj 694 512 osc~ 220;
#X floatatom 704 486 5 0 0 0 - - -;
#X obj 679 532 *~;
#X obj 694 466 + \$1;
#X obj 747 385 / 10;
#X floatatom 757 405 5 0 0 0 - - -;
#X obj 475 462 * 2;
#X obj 307 680 *~;
#X obj 267 544 *~ 0.25;
#X obj 460 625 *~ 0.15;
#X obj 245 710 *~ 0.25;
#X msg 314 304 260;
#X obj 314 283 loadbang;
#X obj 339 383 loadbang;
#X msg 339 404 75;
#X obj 322 601 * 1;
#X obj 679 714 *~ 0.25;
#N canvas 448 155 958 610 reverb 0;
#X obj 13 19 inlet~;
#X obj 13 43 reverb-echo echo-del1 5.43216;
#X obj 277 215 +~;
#X obj 319 215 +~;
#X obj 67 276 outlet~;
#X obj 137 276 outlet~;
#X obj 238 334 +~;
#X obj 347 335 +~;
#X obj 280 334 -~;
#X obj 387 334 -~;
#X obj 237 390 +~;
#X obj 281 391 +~;
#X obj 325 392 -~;
#X obj 364 392 -~;
#X obj 324 474 *~ 0;
#X obj 282 473 *~ 0;
#X obj 237 472 *~ 0;
#X obj 365 475 *~ 0;
#X obj 632 365 inlet;
#X obj 632 437 / 200;
#X obj 632 389 min 100;
#X obj 632 412 max 0;
#X obj 238 583 delwrite~ loop-del1 60;
#X obj 283 561 delwrite~ loop-del2 71.9345;
#X obj 364 515 delwrite~ loop-del4 95.945;
#X obj 298 154 delread~ loop-del1 60;
#X obj 340 179 delread~ loop-del2 71.9345;
#X obj 408 233 delread~ loop-del4 95.945;
#X obj 386 208 delread~ loop-del3 86.7545;
#X obj 325 538 delwrite~ loop-del3 86.7545;
#X obj 13 67 reverb-echo echo-del2 8.45346;
#X obj 13 91 reverb-echo echo-del3 13.4367;
#X obj 13 115 reverb-echo echo-del4 21.5463;
#X obj 13 139 reverb-echo echo-del5 34.3876;
#X obj 13 163 reverb-echo echo-del6 55.5437;
#X text 286 42 "early echo" generators \, which also increase echo
density. Open one to see what they do.;
#X text 300 115 Get the outputs of the recirculating delays. Add the
inputs to two of them.;
#X text 420 313 Do a power-conserving mix of them in pairs. First combine
(1 \, 2) and (3 \, 4)...;
#X text 402 385 ...then (1 \, 3) and (2 \, 4);
#X text 446 469 The two mixing stages have a combined gain of 2 \,
so the recirculation gain is limited to 0.5.;
#X text 586 542 Put the signals back into the;
#X text 584 557 recirculating delays.;
#X text 29 296 Tap outputs from here.;
#X text 708 381 0 to 100 to control reverb;
#X text 719 396 time.;
#X text 691 364 feedback gain on a scale of;
#X connect 0 0 1 0;
#X connect 1 0 30 0;
#X connect 1 1 30 1;
#X connect 2 0 4 0;
#X connect 2 0 6 0;
#X connect 2 0 8 0;
#X connect 3 0 5 0;
#X connect 3 0 6 1;
#X connect 3 0 8 1;
#X connect 6 0 10 0;
#X connect 6 0 12 0;
#X connect 7 0 12 1;
#X connect 7 0 10 1;
#X connect 8 0 11 0;
#X connect 8 0 13 0;
#X connect 9 0 11 1;
#X connect 9 0 13 1;
#X connect 10 0 16 0;
#X connect 11 0 15 0;
#X connect 12 0 14 0;
#X connect 13 0 17 0;
#X connect 14 0 29 0;
#X connect 15 0 23 0;
#X connect 16 0 22 0;
#X connect 17 0 24 0;
#X connect 18 0 20 0;
#X connect 19 0 17 1;
#X connect 19 0 16 1;
#X connect 19 0 15 1;
#X connect 19 0 14 1;
#X connect 20 0 21 0;
#X connect 21 0 19 0;
#X connect 25 0 2 1;
#X connect 26 0 3 1;
#X connect 27 0 7 1;
#X connect 27 0 9 1;
#X connect 28 0 7 0;
#X connect 28 0 9 0;
#X connect 30 0 31 0;
#X connect 30 1 31 1;
#X connect 31 0 32 0;
#X connect 31 1 32 1;
#X connect 32 0 33 0;
#X connect 32 1 33 1;
#X connect 33 0 34 0;
#X connect 33 1 34 1;
#X connect 34 0 2 0;
#X connect 34 1 3 0;
#X restore 679 694 pd reverb;
#X floatatom 740 694 5 0 0 0 - - -;
#X obj 730 674 * 100;
#X obj 460 788 *~;
#X obj 531 788 *~;
#X obj 886 665 osc~ 340;
#X obj 997 405 phasor~ 15;
#X floatatom 1007 386 5 0 0 0 - - -;
#X floatatom 1109 674 5 0 0 0 - - -;
#X floatatom 1007 347 5 0 0 0 - - -;
#X obj 886 645 * 2;
#X obj 932 613 + 90;
#X floatatom 942 633 5 0 0 0 - - -;
#X obj 932 593 / 10;
#X obj 1099 654 + 95;
#X obj 1099 480 loadbang;
#X msg 1150 596 20;
#X obj 1222 456 / 2;
#X obj 1222 476 + 40;
#X obj 322 660 osc~ 220;
#X obj 909 495 osc~;
#X floatatom 919 476 5 0 0 0 - - -;
#X obj 886 695 rev3~ 90 90 1500 400;
#X obj 909 456 / 5;
#X floatatom 343 505 5 0 0 0 - - -;
#X obj 333 485 / 5;
#X obj 531 697 *~ 0.25;
#X obj 679 600 *~ 0.35;
#X floatatom 728 599 5 0 0 0 - - -;
#X obj 718 579 / 20;
#X obj 948 121 sum;
#X floatatom 958 161 5 0 0 0 - - -;
#X obj 948 101 pack f f f f;
#X obj 948 141 / 4;
#X obj 679 352 + 300;
#X obj 997 366 + 200;
#X obj 997 327 * 5;
#X obj 1012 603 osc~ 220;
#X obj 997 623 +~;
#X obj 997 504 *~ 0.1;
#X obj 997 643 *~ 0.5;
#X obj 1030 465 / 10;
#X floatatom 1040 485 5 0 0 0 - - -;
#X obj 1012 564 + 300;
#X floatatom 1023 584 5 0 0 0 - - -;
#X text 677 307 the main "high pitch" voice;
#X text 323 178 ------------------------------------------------------------
;
#X obj 661 158 s b5;
#X obj 654 216 s f5;
#X obj 1030 445 r b5;
#X obj 718 559 r b5;
#X obj 322 581 r b5;
#X obj 574 158 s b4;
#X obj 490 542 r b4;
#X obj 1012 544 r b4;
#X obj 312 158 s b1;
#X obj 245 284 r b1;
#X obj 260 574 r b1;
#X obj 318 363 r b1;
#X obj 971 81 r b1;
#X obj 909 436 r b1;
#X obj 997 307 r f5;
#X obj 486 158 s b3;
#X obj 305 218 s f1;
#X obj 333 465 r b1;
#X obj 948 61 r f1;
#X obj 392 218 s f2;
#X obj 994 61 r f2;
#X obj 948 180 s averageLeft;
#X obj 679 332 r averageLeft;
#X obj 1017 81 r b2;
#X obj 730 654 r b2;
#X obj 399 158 s b2;
#X obj 886 625 r b2;
#X obj 932 573 r f2;
#X obj 480 218 s f3;
#X obj 747 365 r f3;
#X obj 1222 436 r f3;
#X obj 567 217 s f4;
#X obj 475 422 r f4;
#X text 303 28 reading the serial information from the sensor instrument
and convert them to send from back 1-5 and front 1-5 for use elsewhere
in the patch;
#X text 722 179 | "right" side of the instrument;
#X text 70 175 "left" cable side of the instrument |;
#X obj 1150 576 loadbang;
#X obj 1099 500 tgl 15 0 empty empty empty 0 -6 0 8 -262144 -1 -1 1
1;
#X obj 1171 496 random 40;
#X text 932 552 level;
#X text 896 285 nice atmospheric reverb merging together the soundscape
;
#X text 66 506 start output and set volume to 100;
#X text 369 615 carrier frequency;
#X text 524 481 modulation frequency;
#X text 539 569 modulation depth;
#X text 376 788 left channel;
#X text 563 788 right channel;
#X text 242 256 lower frequency carpet;
#X text 1097 371 make a rev livelyness random but with slight input
bias for control;
#X text 1169 404 give the metro a randomish time depending on f3;
#X text 1197 24;
#X text 945 24 averaged "left" side of the instrument odo: averages
for center and right;
#X text -54 32 Capacitive sensing instrument Johannes Neumeier 2014
Created at Physical Interaction Design course at Aalto University \,
Media Lab \, SOPI research group fall 2014;
#X text 166 146 back row of sensors | --------------------;
#X text 154 189 ---------------------- facing row of sensors |;
#X connect 0 0 1 0;
#X connect 0 1 2 0;
#X connect 0 2 3 0;
#X connect 0 3 4 0;
#X connect 0 4 5 0;
#X connect 0 5 6 0;
#X connect 0 6 7 0;
#X connect 0 7 10 0;
#X connect 0 8 9 0;
#X connect 0 9 8 0;
#X connect 1 0 129 0;
#X connect 2 0 121 0;
#X connect 3 0 132 0;
#X connect 4 0 138 0;
#X connect 5 0 141 0;
#X connect 6 0 128 0;
#X connect 7 0 144 0;
#X connect 8 0 113 0;
#X connect 9 0 114 0;
#X connect 10 0 118 0;
#X connect 12 0 13 1;
#X connect 13 0 59 0;
#X connect 14 0 18 0;
#X connect 15 0 17 0;
#X connect 16 0 15 0;
#X connect 17 0 69 1;
#X connect 17 0 70 1;
#X connect 18 0 16 0;
#X connect 19 0 21 0;
#X connect 19 0 20 0;
#X connect 19 0 22 0;
#X connect 19 0 151 0;
#X connect 21 0 25 0;
#X connect 21 0 80 0;
#X connect 22 0 19 1;
#X connect 26 0 27 0;
#X connect 27 0 28 0;
#X connect 27 0 29 0;
#X connect 29 0 14 0;
#X connect 30 0 32 0;
#X connect 30 0 13 0;
#X connect 32 0 13 0;
#X connect 32 0 57 0;
#X connect 33 0 32 1;
#X connect 33 0 34 0;
#X connect 35 0 33 0;
#X connect 38 0 40 0;
#X connect 40 0 45 1;
#X connect 42 0 37 0;
#X connect 42 0 85 0;
#X connect 43 0 55 0;
#X connect 44 0 41 0;
#X connect 44 0 40 1;
#X connect 45 0 58 0;
#X connect 46 0 66 0;
#X connect 46 0 88 0;
#X connect 46 0 92 0;
#X connect 48 0 51 0;
#X connect 49 0 51 1;
#X connect 51 0 93 0;
#X connect 52 0 50 0;
#X connect 52 0 49 0;
#X connect 53 0 54 0;
#X connect 53 0 48 1;
#X connect 53 0 52 1;
#X connect 55 0 38 0;
#X connect 55 0 39 0;
#X connect 56 0 59 0;
#X connect 56 0 70 0;
#X connect 57 0 13 0;
#X connect 58 0 69 0;
#X connect 59 0 69 0;
#X connect 60 0 31 0;
#X connect 60 0 30 1;
#X connect 61 0 60 0;
#X connect 62 0 63 0;
#X connect 63 0 36 0;
#X connect 63 0 35 1;
#X connect 64 0 42 0;
#X connect 65 0 70 0;
#X connect 66 0 65 0;
#X connect 68 0 67 0;
#X connect 68 0 66 1;
#X connect 69 0 11 0;
#X connect 70 0 11 1;
#X connect 71 0 88 0;
#X connect 72 0 105 0;
#X connect 76 0 71 0;
#X connect 77 0 78 0;
#X connect 77 0 88 2;
#X connect 79 0 77 0;
#X connect 80 0 74 0;
#X connect 80 0 88 3;
#X connect 81 0 150 0;
#X connect 82 0 24 0;
#X connect 82 0 21 1;
#X connect 83 0 84 0;
#X connect 84 0 23 0;
#X connect 84 0 151 1;
#X connect 85 0 56 1;
#X connect 85 0 88 0;
#X connect 86 0 88 1;
#X connect 88 0 69 0;
#X connect 88 1 70 0;
#X connect 89 0 86 0;
#X connect 89 0 87 0;
#X connect 91 0 90 0;
#X connect 91 0 33 1;
#X connect 92 0 70 0;
#X connect 92 0 69 0;
#X connect 93 0 46 0;
#X connect 95 0 94 0;
#X connect 95 0 93 1;
#X connect 96 0 99 0;
#X connect 98 0 96 0;
#X connect 99 0 97 0;
#X connect 99 0 134 0;
#X connect 100 0 47 0;
#X connect 100 0 52 0;
#X connect 100 0 49 0;
#X connect 100 0 48 0;
#X connect 101 0 73 0;
#X connect 101 0 72 0;
#X connect 102 0 75 0;
#X connect 102 0 101 0;
#X connect 103 0 104 1;
#X connect 104 0 106 0;
#X connect 105 0 104 0;
#X connect 106 0 88 1;
#X connect 107 0 108 0;
#X connect 107 0 105 1;
#X connect 109 0 103 0;
#X connect 109 0 110 0;
#X connect 115 0 107 0;
#X connect 116 0 95 0;
#X connect 117 0 64 0;
#X connect 119 0 44 0;
#X connect 120 0 109 0;
#X connect 122 0 30 0;
#X connect 123 0 12 0;
#X connect 124 0 35 0;
#X connect 125 0 98 1;
#X connect 126 0 89 0;
#X connect 127 0 102 0;
#X connect 130 0 91 0;
#X connect 131 0 98 0;
#X connect 133 0 98 2;
#X connect 135 0 100 0;
#X connect 136 0 98 3;
#X connect 137 0 68 0;
#X connect 139 0 76 0;
#X connect 140 0 79 0;
#X connect 142 0 53 0;
#X connect 143 0 83 0;
#X connect 145 0 43 0;
#X connect 149 0 82 0;
#X connect 150 0 19 0;
#X connect 151 0 22 1;
