#N canvas 104 103 666 509 10;
#X msg 176 12 bang;
#X obj 96 441 output~;
#X obj 96 330 osc~ 220;
#X obj 96 205 line~;
#X obj 96 115 delay 200;
#X obj 173 75 metro 500;
#X obj 96 381 *~ 1;
#X msg 96 161 0 150;
#X msg 153 163 220 50;
#X floatatom 340 108 5 0 0 0 - - -;
#X obj 229 28 t f b;
#X connect 0 0 5 0;
#X connect 2 0 6 0;
#X connect 3 0 2 0;
#X connect 4 0 7 0;
#X connect 5 0 8 0;
#X connect 5 0 4 0;
#X connect 6 0 1 0;
#X connect 6 0 1 1;
#X connect 7 0 3 0;
#X connect 8 0 3 0;
#X connect 9 0 10 0;
#X connect 10 0 5 1;
#X connect 10 1 5 0;
