#N canvas 408 166 701 641 10;
#X obj 265 415 output~;
#X obj 265 121 bng 15 250 50 0 empty empty empty 17 7 0 10 -262144
-1 -1;
#X obj 265 85 tgl 15 0 empty empty empty 17 7 0 10 -262144 -1 -1 0
1;
#X obj 265 206 line~;
#X obj 265 263 osc~;
#X obj 265 294 +~;
#X obj 265 157 + 100;
#X obj 34 210 phasor~ 10;
#X obj 34 233 *~ 0.15;
#X msg 265 187 \$1 2000;
#X obj 265 102 metro 1500;
#X obj 34 257 bp~ 800 0.5;
#X obj 420 347 *~ 1;
#X obj 420 304 bp~ 500 0.8;
#X obj 416 27 tgl 15 0 empty empty empty 17 7 0 10 -262144 -1 -1 0
1;
#X obj 416 45 metro 1000;
#X obj 416 81 random 10;
#X obj 473 25 random 2500;
#X obj 169 219 osc~;
#X obj 169 194 +~;
#X obj 184 58 tgl 15 0 empty empty empty 17 7 0 10 -262144 -1 -1 0
1;
#X msg 184 131 \$1 10000;
#X obj 184 150 line~;
#X obj 184 94 bng 15 250 50 0 empty empty empty 17 7 0 10 -262144 -1
-1;
#X obj 184 112 random 400;
#X obj 34 93 tgl 15 0 empty empty empty 17 7 0 10 -262144 -1 -1 1 1
;
#X obj 34 112 metro 2000;
#X obj 34 133 bng 15 250 50 0 empty empty empty 17 7 0 10 -262144 -1
-1;
#X obj 34 154 random 50;
#X obj 169 243 *~ 0.25;
#X obj 91 88 * 57;
#X obj 416 64 bng 15 250 50 0 empty empty empty 17 7 0 10 -262144 -1
-1;
#X obj 184 75 metro 2500;
#X obj 265 138 random 25;
#X obj 531 347 line~;
#X obj 531 367 phasor~;
#X msg 531 310 50 5000;
#X obj 508 526 osc~;
#X floatatom 508 396 5 0 0 0 - - -;
#X obj 508 420 *~ 1;
#X obj 539 526 osc~;
#X obj 539 420 *~ 1;
#X obj 446 442 line~;
#X msg 446 422 \$1 1500;
#X msg 607 317 0 1000;
#X floatatom 112 65 5 0 0 0 - - -;
#X obj 528 251 line~;
#X obj 420 280 osc~ 280;
#X floatatom 416 108 5 0 0 0 - - -;
#X obj 415 159 + 300;
#X obj 416 138 * 15;
#X floatatom 415 187 5 0 0 0 - - -;
#X msg 528 224 \$1 1500;
#X msg 600 224 \$1 1500;
#X connect 1 0 33 0;
#X connect 2 0 10 0;
#X connect 3 0 4 0;
#X connect 4 0 5 0;
#X connect 5 0 0 0;
#X connect 5 0 0 1;
#X connect 6 0 9 0;
#X connect 7 0 8 0;
#X connect 8 0 11 0;
#X connect 9 0 3 0;
#X connect 10 0 1 0;
#X connect 11 0 0 0;
#X connect 12 0 0 1;
#X connect 13 0 12 0;
#X connect 14 0 15 0;
#X connect 15 0 17 0;
#X connect 15 0 31 0;
#X connect 16 0 48 0;
#X connect 17 0 15 1;
#X connect 18 0 29 0;
#X connect 19 0 18 0;
#X connect 20 0 32 0;
#X connect 21 0 22 0;
#X connect 22 0 19 1;
#X connect 23 0 24 0;
#X connect 24 0 21 0;
#X connect 25 0 26 0;
#X connect 26 0 27 0;
#X connect 27 0 28 0;
#X connect 28 0 30 0;
#X connect 28 0 7 1;
#X connect 29 0 0 0;
#X connect 29 0 0 1;
#X connect 30 0 26 1;
#X connect 31 0 16 0;
#X connect 32 0 23 0;
#X connect 33 0 6 0;
#X connect 34 0 35 0;
#X connect 36 0 34 0;
#X connect 37 0 0 0;
#X connect 38 0 39 0;
#X connect 38 0 41 0;
#X connect 39 0 37 0;
#X connect 40 0 0 1;
#X connect 41 0 40 0;
#X connect 42 0 37 0;
#X connect 43 0 42 0;
#X connect 44 0 34 0;
#X connect 45 0 30 1;
#X connect 46 0 47 0;
#X connect 47 0 13 0;
#X connect 48 0 50 0;
#X connect 49 0 51 0;
#X connect 50 0 49 0;
#X connect 51 0 52 0;
#X connect 51 0 53 0;
#X connect 52 0 46 0;
#X connect 53 0 46 0;
