#N canvas 730 215 542 516 10;
#X obj 97 28 inlet;
#X obj 136 28 inlet;
#X floatatom 59 125 5 0 0 0 - - -;
#X obj 97 410 osc~;
#X obj 97 431 outlet~;
#X floatatom 104 51 5 0 0 0 - - -;
#X floatatom 143 51 5 0 0 0 - - -;
#X obj 97 101 +;
#X floatatom 154 149 5 0 0 0 - - -;
#X obj 97 172 expr if($f2 < 2 \, $f1 \, 0) \;;
#X obj 97 356 line~;
#X obj 167 240 + 50;
#X floatatom 179 264 5 0 0 0 - - -;
#X obj 97 310 pack \$1 \$2;
#X msg 97 333 \$1 \$2;
#X obj 104 193 trigger f b;
#X obj 167 218 random 500;
#X obj 165 123 % 4;
#X obj 97 78 / 10;
#X connect 0 0 5 0;
#X connect 0 0 18 0;
#X connect 1 0 6 0;
#X connect 1 0 7 1;
#X connect 3 0 4 0;
#X connect 7 0 2 0;
#X connect 7 0 9 0;
#X connect 7 0 17 0;
#X connect 9 0 13 0;
#X connect 9 0 15 0;
#X connect 10 0 3 0;
#X connect 11 0 12 0;
#X connect 11 0 13 1;
#X connect 13 0 14 0;
#X connect 14 0 10 0;
#X connect 15 1 16 0;
#X connect 16 0 11 0;
#X connect 17 0 8 0;
#X connect 17 0 9 1;
#X connect 18 0 7 0;
